# xmcd
#
# Track frame offsets: 
#        150
#        12839
#        25848
#        38443
#        49519
#        57971
#        68591
#        79560
#        90042
#        102949
#        117295
#        128763
#        148542
#
# Disc length: 2123 seconds
#
# Revision: 0
# Processed by: cddbd v1.4PL0 Copyright (c) Steve Scherf et al.
# Submitted via: ExactAudioCopy v0.90a11
#
DISCID=8f08490d
DTITLE=Calvary Mountain Boys - We Ain't Done Yet
DYEAR=1900
DGENRE=
TTITLE0=Little Mountain Church
TTITLE1=Don't Be Trough Using Me
TTITLE2=Cry From The Cross
TTITLE3=Take Your Shoes Off Moses
TTITLE4=Old Time Religion
TTITLE5=Journey To The Son
TTITLE6=Barabbas
TTITLE7=It's Me Again Lord
TTITLE8=Back To The Cross
TTITLE9=He Tells Me The Time
TTITLE10=Workin' On The Building
TTITLE11=Barn Stories
TTITLE12=Power In The Blood
EXTD=
EXTT0=
EXTT1=
EXTT2=
EXTT3=
EXTT4=
EXTT5=
EXTT6=
EXTT7=
EXTT8=
EXTT9=
EXTT10=
EXTT11=
EXTT12=
PLAYORDER=
